<svg xmlns="http://www.w3.org/2000/svg" viewBox="0 0 314.12 145.63"><defs><style>.cls-1{fill:#fff;}</style></defs><title>fondoRecurso 1</title><g id="Capa_2" data-name="Capa 2"><g id="Capa_1-2" data-name="Capa 1"><path class="cls-1" d="M38.61,114.83q-17.19,0-34.4,0c-1.8,0-3.78.11-3.89,2.56-.11,2.7,2,2.87,3.93,2.89,5.67,0,11.34,0,17,0s11.59,0,17.39,0c1.86,0,3.71-.27,3.69-2.74S40.47,114.83,38.61,114.83Z"/><path class="cls-1" d="M73.83,83a66.62,66.62,0,0,1,8.71,0c3.7.26,4.81-1.39,4.78-4.92-.13-13.89-.06-27.78,0-41.66,0-1.35-.33-2.77.57-4.34,1.49,1.26,1.9,2.76,2.54,4.1C97.22,50.44,104.06,64.66,110.74,79c1.35,2.9,3.11,4.28,6.37,4.07a87.12,87.12,0,0,1,10.22,0c3.64.21,4.93-1.33,4.88-4.89-.12-10.61,0-21.22,0-31.82,0-13.64-.07-27.28,0-40.91,0-3.57-1.24-5.14-4.88-4.87-2.51.19-5,0-7.57,0-4.77,0-5.21.43-5.22,5.19,0,14.65,0,29.29,0,43.94,0,1.38.47,3-.88,4.22-1.46-1.41-1.92-3.16-2.62-4.74C105.07,35.79,99.28,22.33,93.27,9,88.85-.82,91.46.51,79.64.66c-7.12.09-10.35,3.58-10.4,10.65-.06,10.73,0,21.46,0,32.2,0,11.61.08,23.23,0,34.85C69.14,81.78,70.38,83.22,73.83,83Z"/><path class="cls-1" d="M201.3,88.42a5.89,5.89,0,0,0-6,5.91,6.17,6.17,0,0,0,12.33.11A5.92,5.92,0,0,0,201.3,88.42Z"/><path class="cls-1" d="M143.69,82.88c5.27,0,11,1.52,15.68-.71,3.39-1.6,3.28-6.8,4.5-10.45,1-3.09,2.77-4.07,5.86-4,6.68.16,13.38,0,20.06,0,7.27,0,7.24,0,9.55,6.73,3.32,9.63,1.44,8.37,11.61,8.47,2,0,4,0,6.06,0,2.55.08,3.47-.87,2.62-3.45q-12.56-37.9-25-75.84A4.1,4.1,0,0,0,190.1.55c-4,.09-8.07,0-12.11,0-7.67.06-10,1.71-12.43,9q-11.42,33.9-22.78,67.81c-.32,1-.62,1.92-.89,2.89C141.46,81.85,142.09,82.88,143.69,82.88Zm28.53-35c2.82-8.75,5.75-17.46,8.67-26.17.06-.17.41-.24.62-.36.89.25,1,1.07,1.24,1.74,2.54,7.66,5,15.33,7.58,23,1,3,.45,4.59-3.08,4.48-4.15-.13-8.31,0-12.47,0C173.09,50.48,171.52,50,172.22,47.89Z"/><path class="cls-1" d="M57.78,34.86c0-9.85-.11-19.69,0-29.54C57.89,1.68,56.5.24,52.92.53c-2.14.18-4.29,0-6.44,0C39,.56,39,.56,39,7.9c0,17.8,0,35.59,0,53.39,0,6.13-3.85,9.53-10.58,9.58-6.56,0-10.75-3.55-10.81-9.45-.07-7.83,0-15.66,0-23.48,0-11,0-22,0-32.95,0-1.72.25-3.6-2.1-4.29C6.72-1.88.09,2.88.07,11.86,0,28.65.19,45.44,0,62.22-.08,69,2.83,73.79,8.23,77.42c11.43,7.67,30.38,7.54,41.71-.3,5.23-3.62,8.05-8.39,7.89-15C57.61,53,57.78,44,57.78,34.86Z"/><path class="cls-1" d="M281.64,78.11c4-13.82,8.38-27.56,12.64-41.31.33-1.07.28-2.46,1.7-3.11.76,1.69.47,3.23.47,4.72,0,13,0,26,0,39,0,5.18.38,5.51,5.66,5.54,2.53,0,5.06-.09,7.58,0,3,.13,4.4-1.06,4.4-4.19q-.08-37.12,0-74.27c0-2.93-1.34-4-4.18-4-5.06.09-10.11,0-15.16,0-5.61,0-5.6,0-7.14,5.59Q281,30.08,274.34,54c-.35,1.27-.29,2.8-2.24,4-1.23-4.11-2.43-8-3.57-12q-6-20.56-11.89-41.13c-.6-2.07-1-4.31-3.95-4.28-4.8,0-9.62-.2-14.4.15-5.83.44-8.79,3.81-9,9.71-.11,3.15,0,6.31,0,9.47q0,29,0,58c0,4.72.33,5,4.89,5.07,2.65,0,5.31,0,8,0,4.8,0,5.19-.39,5.2-5.19,0-13,0-26,0-39,0-1.42-.51-3,.67-4.35,1.4.88,1.42,2.38,1.85,3.62,4.18,12,8.25,24.14,12.48,36.17,3.14,8.91,3.23,8.72,12.63,8.87C278.78,83.13,280.57,81.79,281.64,78.11Z"/><path class="cls-1" d="M251.9,104.5a17.63,17.63,0,0,0-13.1,5c-4.37,4.18-6.59,9.5-7.91,15.24-.53,2.32-.68,4.73-1,7.1-.53,3.44-3.91,6.45-6.78,5.78-4.22-1-2.53-4.16-2.27-6.76,0-.38.17-.74.24-1.11,2.56-12,5.14-23.94,7.63-35.93.28-1.34,1.34-3.13-.46-4.09-3.39-1.79-10.2,1.61-11,5.42q-3.6,16.65-7.13,33.32c-.65,3-1.61,5.86-4.16,7.86-1.7,1.33-3.62,2-5.61.87s-1.51-3-1.15-4.77q2.22-10.75,4.49-21.49c1.2-5.7,1.19-5.49-4.64-5.79-4.07-.21-6,1.19-6.56,5.28-.76,5.11-2.1,10.13-3.16,15.19-.72,3.46-1.69,6.88-1.7,10.44,0,6.3,3.13,9.32,9.36,9.19a13.08,13.08,0,0,0,9.46-4.11c1.43-1.47,2.6-1.82,3.8.31,1.76,3.13,4.67,3.93,8.07,3.82a14.49,14.49,0,0,0,10.09-4.53c1-1,1.93-2.22,3.24-.28,3.87,5.76,9.67,5.46,15.31,4.25,4.49-1,7.19-4.28,8.51-9.87-3,1.35-4.91,2.63-7.17,3-3.7.62-5.81-.84-6.66-4.41s1.05-4.5,4.07-5.31c7.15-1.92,12.51-6,14.07-13.73C260.89,108.48,257.88,104.65,251.9,104.5Zm-6.22,19.8c-1.62.54-3.39.81-2.79-1.73a27.52,27.52,0,0,1,5.79-12.18c.94-1.08,2.16-1.88,3.67-1.31s1.61,2.09,1.66,3.26C254,117.13,249.9,122.89,245.68,124.3Z"/><path class="cls-1" d="M172.14,105.67c-2.24.45-2.83-.14-2.39-2.22.75-3.58,1.55-7.15,2.23-10.75.2-1,.82-2.31-.58-3C168.13,88,161.05,91.4,160.25,95c-1.29,5.92-2.64,11.83-3.82,17.77-.65,3.33-3,4.21-5.81,4.27s-2.43-2.38-2.76-4.14c-1.11-5.77-4.85-8.81-10.71-8.44A18.12,18.12,0,0,0,124,111.08c-4.94,5.85-6.83,12.85-7.62,20.24a7.08,7.08,0,0,1-2.91,5.48,4.07,4.07,0,0,1-4.3.47,3.4,3.4,0,0,1-1.75-3.86c.34-2.24.83-4.47,1.36-6.67,1.14-4.67,2.44-9.3,2.09-14.18s-2.91-7.25-7.78-7.49A12.05,12.05,0,0,0,93.22,109c-.78.84-1.39,1.71-2.69.35-4.82-5-7.71-5.53-14-2.82-.87.38-1.91,1.39-2.69.28-1.59-2.26-3.86-1.37-5.9-1.66-2.09.32-4.94-.82-5.65,2.38-2.57,11.58-5,23.19-7.46,34.8-.24,1.15-.18,2.19,1.33,2.68,5.63,1.82,9.32-.34,10.62-6.16,1.63-7.26,2.52-14.7,5.09-21.73,1-2.64,2.63-5.71,5.86-4.77s2.11,4.4,1.63,6.89c-1.41,7.18-3,14.33-4.5,21.5-.27,1.3-1,2.79.27,3.91,2.77,2.38,10.19-.17,11-3.76,1.44-6.66,2.79-13.34,4.26-20,.62-2.85,1.49-5.67,3.85-7.64,2.61-2.19,5.27-1.17,5.75,2.2.35,2.42-.43,4.75-.9,7.1-.9,4.45-2.38,8.8-2.51,13.37-.19,6.09,2.87,9.13,8.88,9.31a11.19,11.19,0,0,0,9.44-3.92c1.55-1.82,2.67-1.77,4.15.12,2,2.54,4.87,3.47,8,3.68,8.83.58,15.44-4.23,18.8-13.88.91-2.61,1.33-5.39,2.08-8.06.8-2.84,3.45-3.18,5.51-2.8s.72,2.54.52,3.84c-.48,3.24-1.36,6.43-1.8,9.68-.75,5.47,2.12,10.1,7,11,7.31,1.33,14-.18,18.84-6.13a30.68,30.68,0,0,0,6.58-24.52C183.5,106.53,179.81,104.13,172.14,105.67Zm-31.36,15.65c1.84,4-3,14.88-7,16.44-2.61,1-4.52.13-5.27-2.59a20.15,20.15,0,0,1-.41-3.81A39.41,39.41,0,0,1,133,114.07a11,11,0,0,1,3.5-3.93c1.37-.92,2.86-1.28,4.16,0a3,3,0,0,1,.53,4.13C139.54,116.57,139.57,118.71,140.78,121.32Zm36.21-2a29.48,29.48,0,0,1-3.61,13.74,9.35,9.35,0,0,1-3.46,3.91,4.53,4.53,0,0,1-4.68.17,3.65,3.65,0,0,1-1.77-4.23c1.32-6.41,2.72-12.8,4.12-19.19.48-2.19,2.1-3,4.14-3.21a4.22,4.22,0,0,1,4.41,2.87A13.81,13.81,0,0,1,177,119.32Z"/><path class="cls-1" d="M309.8,114.83c-5.55,0-11.09,0-16.64,0-5.79,0-11.59,0-17.39,0-1.95,0-4,.13-3.93,2.87.08,2.5,2,2.58,3.83,2.59q17,0,34,0c1.91,0,4.11,0,4.15-2.68S311.73,114.84,309.8,114.83Z"/></g></g></svg>