<svg xmlns="http://www.w3.org/2000/svg" viewBox="0 0 108.32 50.22"><defs><style>.cls-1{fill:#2b489f;}</style></defs><title>Recurso 1</title><g id="Capa_2" data-name="Capa 2"><g id="Capa_1-2" data-name="Capa 1"><path class="cls-1" d="M13.32,39.6H1.45c-.62,0-1.3,0-1.34.88s.68,1,1.35,1c2,0,3.92,0,5.87,0s4,0,6,0c.64,0,1.28-.09,1.27-.95S14,39.6,13.32,39.6Z"/><path class="cls-1" d="M25.46,28.63a23.1,23.1,0,0,1,3,0c1.28.09,1.66-.48,1.65-1.7,0-4.79,0-9.58,0-14.37a2.59,2.59,0,0,1,.2-1.49,3.52,3.52,0,0,1,.87,1.41c2.35,4.91,4.71,9.82,7,14.75a2,2,0,0,0,2.19,1.4,29.69,29.69,0,0,1,3.53,0c1.25.07,1.7-.46,1.68-1.69,0-3.66,0-7.31,0-11,0-4.7,0-9.41,0-14.11C45.6.63,45.16.09,43.91.18c-.87.07-1.74,0-2.61,0C39.65.21,39.5.35,39.5,2c0,5.05,0,10.1,0,15.15,0,.47.16,1-.3,1.45a4.55,4.55,0,0,1-.9-1.63c-2.05-4.62-4-9.26-6.12-13.86C30.64-.28,31.54.17,27.46.23,25,.26,23.89,1.46,23.88,3.9c0,3.7,0,7.4,0,11.1,0,4,0,8,0,12C23.84,28.2,24.27,28.7,25.46,28.63Z"/><path class="cls-1" d="M69.41,30.49a2,2,0,0,0-2.07,2,2.13,2.13,0,0,0,4.25,0A2,2,0,0,0,69.41,30.49Z"/><path class="cls-1" d="M49.55,28.58c1.82,0,3.78.53,5.41-.24,1.16-.56,1.13-2.35,1.55-3.61a1.78,1.78,0,0,1,2-1.38c2.3.06,4.61,0,6.92,0,2.5,0,2.49,0,3.29,2.32,1.14,3.32.5,2.89,4,2.92.7,0,1.4,0,2.09,0,.88,0,1.2-.3.91-1.19Q71.41,14.35,67.1,1.28A1.39,1.39,0,0,0,65.55.19c-1.39,0-2.78,0-4.17,0-2.65,0-3.44.59-4.29,3.11Q53.16,15,49.24,26.69c-.11.33-.22.66-.31,1C48.78,28.23,49,28.58,49.55,28.58Zm9.84-12.07c1-3,2-6,3-9,0-.06.14-.08.21-.12.31.08.35.36.43.6.88,2.64,1.73,5.28,2.61,7.92.35,1,.16,1.58-1.06,1.54-1.43,0-2.86,0-4.3,0C59.69,17.41,59.15,17.26,59.39,16.51Z"/><path class="cls-1" d="M19.92,12c0-3.39,0-6.79,0-10.18C20,.58,19.48.08,18.25.18c-.74.06-1.48,0-2.22,0-2.6,0-2.6,0-2.6,2.53q0,9.21,0,18.42c0,2.11-1.33,3.28-3.65,3.3s-3.71-1.22-3.73-3.26c0-2.7,0-5.4,0-8.1,0-3.78,0-7.57,0-11.36C6,1.13,6.12.48,5.31.24,2.32-.65,0,1,0,4.09c0,5.79,0,11.58,0,17.37A5.82,5.82,0,0,0,2.84,26.7a13.89,13.89,0,0,0,14.38-.11,5.72,5.72,0,0,0,2.72-5.17C19.87,18.29,19.92,15.15,19.92,12Z"/><path class="cls-1" d="M97.12,26.93c1.39-4.76,2.89-9.5,4.36-14.24.11-.37.1-.85.58-1.07a3.43,3.43,0,0,1,.17,1.62c0,4.49,0,9,0,13.47,0,1.78.13,1.9,2,1.91.87,0,1.74,0,2.61,0,1,.05,1.52-.37,1.52-1.44q0-12.81,0-25.62c0-1-.46-1.39-1.45-1.37-1.74,0-3.48,0-5.22,0-1.94,0-1.93,0-2.47,1.92q-2.28,8.25-4.58,16.5A1.77,1.77,0,0,1,93.83,20c-.42-1.42-.84-2.77-1.23-4.13Q90.55,8.78,88.5,1.68C88.29,1,88.14.2,87.14.21c-1.66,0-3.32-.07-5,.05-2,.15-3,1.31-3.1,3.35,0,1.08,0,2.17,0,3.26v20c0,1.62.11,1.73,1.69,1.74.91,0,1.83,0,2.74,0,1.66,0,1.79-.14,1.79-1.8,0-4.48,0-9,0-13.46,0-.49-.18-1,.23-1.5.48.3.49.82.64,1.25,1.44,4.16,2.84,8.33,4.3,12.47,1.09,3.08,1.12,3,4.36,3.06A2,2,0,0,0,97.12,26.93Z"/><path class="cls-1" d="M86.86,36a6,6,0,0,0-4.51,1.7A10.06,10.06,0,0,0,79.62,43c-.18.8-.23,1.63-.36,2.45-.18,1.18-1.35,2.22-2.34,2-1.45-.34-.87-1.44-.78-2.33,0-.13.06-.26.08-.39.89-4.12,1.78-8.25,2.63-12.38.1-.47.47-1.09-.15-1.41-1.17-.62-3.52.55-3.81,1.86-.83,3.83-1.64,7.66-2.46,11.49A4.3,4.3,0,0,1,71,47a1.65,1.65,0,0,1-1.93.31c-.66-.38-.53-1-.4-1.65q.77-3.7,1.54-7.41c.42-2,.41-1.89-1.59-2-1.41-.07-2.06.41-2.27,1.82-.26,1.76-.72,3.5-1.08,5.24a17.68,17.68,0,0,0-.59,3.6c0,2.17,1.08,3.21,3.23,3.17a4.46,4.46,0,0,0,3.26-1.42c.49-.5.89-.62,1.31.11a2.76,2.76,0,0,0,2.78,1.32,5,5,0,0,0,3.48-1.57c.36-.35.67-.76,1.12-.09,1.33,2,3.33,1.88,5.28,1.46,1.55-.33,2.48-1.47,2.93-3.4a11,11,0,0,1-2.47,1A1.78,1.78,0,0,1,83.3,46c-.29-1.23.36-1.56,1.4-1.84,2.47-.66,4.32-2.06,4.86-4.73A2.57,2.57,0,0,0,86.86,36Zm-2.14,6.82c-.56.19-1.17.28-1-.59a9.45,9.45,0,0,1,2-4.2A1.13,1.13,0,0,1,87,37.61c.55.21.56.73.57,1.13A4.87,4.87,0,0,1,84.72,42.86Z"/><path class="cls-1" d="M59.36,36.44c-.77.16-1,0-.82-.76.26-1.24.53-2.47.77-3.71.06-.36.28-.8-.2-1-1.13-.58-3.57.6-3.85,1.85-.45,2-.91,4.08-1.32,6.13-.22,1.15-1,1.45-2,1.47s-.84-.82-.95-1.43a3.25,3.25,0,0,0-3.7-2.9,6.22,6.22,0,0,0-4.54,2.27,12.41,12.41,0,0,0-2.62,7,2.43,2.43,0,0,1-1,1.88,1.4,1.4,0,0,1-1.48.17A1.17,1.17,0,0,1,37,46a22.87,22.87,0,0,1,.47-2.3,15.51,15.51,0,0,0,.71-4.88,2.5,2.5,0,0,0-2.68-2.59,4.11,4.11,0,0,0-3.39,1.36c-.27.28-.48.58-.93.12-1.66-1.73-2.66-1.91-4.81-1-.31.13-.67.48-.93.1-.55-.78-1.33-.47-2-.57-.72.11-1.7-.29-2,.82-.88,4-1.72,8-2.57,12-.08.39-.06.75.46.92,1.94.63,3.21-.12,3.66-2.12a57.79,57.79,0,0,1,1.76-7.49c.33-.91.9-2,2-1.65s.73,1.52.56,2.37c-.49,2.48-1,5-1.55,7.42-.09.45-.36,1,.09,1.35,1,.82,3.52-.06,3.78-1.3.5-2.3,1-4.6,1.47-6.9a4.5,4.5,0,0,1,1.33-2.63,1.12,1.12,0,0,1,2,.76,7.06,7.06,0,0,1-.31,2.45,26.75,26.75,0,0,0-.86,4.61c-.07,2.1,1,3.15,3.06,3.21a3.9,3.9,0,0,0,3.26-1.35c.53-.63.92-.61,1.43,0A3.63,3.63,0,0,0,43.82,50c3,.2,5.32-1.46,6.48-4.79.32-.9.46-1.86.72-2.78a1.5,1.5,0,0,1,1.9-1c.75.14.25.88.18,1.33-.17,1.12-.47,2.22-.62,3.34A3.16,3.16,0,0,0,54.89,50a6.38,6.38,0,0,0,6.5-2.11,10.59,10.59,0,0,0,2.26-8.46C63.28,36.74,62,35.91,59.36,36.44Zm-10.81,5.4c.63,1.37-1,5.13-2.42,5.66a1.22,1.22,0,0,1-1.82-.89,6.36,6.36,0,0,1-.14-1.31,13.57,13.57,0,0,1,1.68-6A3.91,3.91,0,0,1,47.06,38a1.09,1.09,0,0,1,1.62,1.42A2.21,2.21,0,0,0,48.55,41.84ZM61,41.14a10.22,10.22,0,0,1-1.24,4.75,3.28,3.28,0,0,1-1.19,1.34,1.55,1.55,0,0,1-1.62.06,1.27,1.27,0,0,1-.61-1.46c.45-2.21.94-4.41,1.42-6.62a1.4,1.4,0,0,1,1.43-1.1,1.45,1.45,0,0,1,1.52,1A4.59,4.59,0,0,1,61,41.14Z"/><path class="cls-1" d="M106.83,39.6c-1.91,0-3.82,0-5.74,0s-4,0-6,0c-.68,0-1.39,0-1.36,1s.7.9,1.32.9c3.91,0,7.83,0,11.74,0,.65,0,1.41,0,1.43-.93S107.5,39.6,106.83,39.6Z"/></g></g></svg>