<svg xmlns="http://www.w3.org/2000/svg" viewBox="0 0 112.11 113.36"><defs><style>.cls-1{fill:#fff;}</style></defs><title>Recurso 1</title><g id="Capa_2" data-name="Capa 2"><g id="Capa_1-2" data-name="Capa 1"><path class="cls-1" d="M36.12,46.09V38.62H50.43a11.23,11.23,0,0,1-10.57,7.47ZM56.05,7.47q2.07,0,4.08.18a19.09,19.09,0,0,0-.34,3.56A18.71,18.71,0,0,0,78.48,29.9a18.57,18.57,0,0,0,13.84-6.13,48.46,48.46,0,0,1,8.58,51A18.7,18.7,0,1,0,74.72,100.9a48.16,48.16,0,0,1-18.67,3.74c-1.35,0-2.69-.06-4-.17a26.14,26.14,0,0,0-15.9-43.16V53.56h3.74A18.71,18.71,0,0,0,58.55,34.88a3.74,3.74,0,0,0-3.74-3.74H32.39a3.73,3.73,0,0,0-3.74,3.74V61.31a26.22,26.22,0,0,0-18.17,11.6A48.6,48.6,0,0,1,56.05,7.47ZM67.52,8.84a48.61,48.61,0,0,1,19.41,9.73,11.21,11.21,0,0,1-19.66-7.36,11,11,0,0,1,.25-2.37ZM82.67,96.67a11.21,11.21,0,1,1,14-14,48.88,48.88,0,0,1-14,14Zm-50.28,9.21A18.69,18.69,0,1,1,51.07,87.2a18.7,18.7,0,0,1-18.68,18.68Zm0,7.48a26,26,0,0,0,11.37-2.61A56.06,56.06,0,1,0,56.05,0,56.07,56.07,0,0,0,6.64,82.54a26.48,26.48,0,0,0-.41,4.66,26.19,26.19,0,0,0,26.16,26.16Z"/><path class="cls-1" d="M86,44.84a3.74,3.74,0,1,1-3.74,3.74A3.75,3.75,0,0,1,86,44.84Zm0,14.95A11.21,11.21,0,1,0,74.74,48.58,11.22,11.22,0,0,0,86,59.79Z"/><path class="cls-1" d="M48.58,15a3.74,3.74,0,1,1-3.74,3.73A3.74,3.74,0,0,1,48.58,15Z"/><path class="cls-1" d="M63.53,59.79a3.74,3.74,0,1,1-3.74,3.74,3.74,3.74,0,0,1,3.74-3.74Z"/><path class="cls-1" d="M18.68,44.84A3.74,3.74,0,1,1,15,48.58a3.74,3.74,0,0,1,3.73-3.74Z"/></g></g></svg>