<svg xmlns="http://www.w3.org/2000/svg" viewBox="0 0 140.98 116.25"><defs><style>.cls-1{fill:#fff;}</style></defs><title>Recurso 2</title><g id="Capa_2" data-name="Capa 2"><g id="Capa_1-2" data-name="Capa 1"><path class="cls-1" d="M70.49,45.25a6.18,6.18,0,1,1,6.19-6.18A6.2,6.2,0,0,1,70.49,45.25Z"/><path class="cls-1" d="M70.49,36.39a2.68,2.68,0,1,1-2.69,2.68,2.69,2.69,0,0,1,2.69-2.68m0-7a9.68,9.68,0,1,0,9.69,9.68,9.7,9.7,0,0,0-9.69-9.68Z"/><path class="cls-1" d="M63.69,70.29A2.68,2.68,0,1,1,61,73a2.69,2.69,0,0,1,2.69-2.68Z"/><path class="cls-1" d="M77.29,70.29A2.68,2.68,0,1,1,74.6,73a2.68,2.68,0,0,1,2.69-2.68Z"/><path class="cls-1" d="M63.09,115.25a9.65,9.65,0,0,1-9.64-9.62v-12a10.21,10.21,0,0,1-4.05-8.14v-5.2a15.69,15.69,0,0,0-1.26-6.14A83.94,83.94,0,0,1,1.65,41.17a3.71,3.71,0,0,1,0-4.2A84,84,0,0,1,69.87,1h.62a83.87,83.87,0,0,1,68.83,36,3.69,3.69,0,0,1,0,4.2A83.86,83.86,0,0,1,92.85,74.11a15.64,15.64,0,0,0-1.27,6.15v5.2a10.24,10.24,0,0,1-4,8.14v12a9.65,9.65,0,0,1-9.65,9.62Zm-2.26-9.62a2.26,2.26,0,0,0,2.26,2.26H77.88a2.27,2.27,0,0,0,2.27-2.26V95.7H60.83ZM70,8.36A31.51,31.51,0,0,0,49.24,63.24a23,23,0,0,1,7.54,17v5.2a2.89,2.89,0,0,0,2.9,2.88H81.3a2.89,2.89,0,0,0,2.9-2.88v-5.2a23,23,0,0,1,2.64-10.67,3.56,3.56,0,0,1,.38-.69,22.89,22.89,0,0,1,4.56-5.7A31.53,31.53,0,0,0,70.49,8.36Zm29.74,5.83a38.83,38.83,0,0,1,2,48.92,76.35,76.35,0,0,0,30-24A76,76,0,0,0,99.76,14.19ZM9.23,39.07a76.2,76.2,0,0,0,30,24,38.72,38.72,0,0,1,2.11-48.95A76,76,0,0,0,9.23,39.07Z"/><path class="cls-1" d="M70.49,2a82.87,82.87,0,0,1,68,35.54,2.66,2.66,0,0,1,0,3.05A82.79,82.79,0,0,1,92.13,73.28a16.55,16.55,0,0,0-1.56,7v5.2a9.23,9.23,0,0,1-4,7.63v12.54a8.65,8.65,0,0,1-8.65,8.62H63.09a8.64,8.64,0,0,1-8.64-8.62V93.09a9.25,9.25,0,0,1-4.05-7.63v-5.2a16.62,16.62,0,0,0-1.54-7A82.77,82.77,0,0,1,2.47,40.59a2.7,2.7,0,0,1,0-3.05A82.9,82.9,0,0,1,69.94,2h.55M59.68,89.34H81.3a3.89,3.89,0,0,0,3.9-3.88v-5.2A22,22,0,0,1,87.75,70a2.63,2.63,0,0,1,.31-.57,22.11,22.11,0,0,1,4.39-5.5,32.59,32.59,0,0,0,10.66-24A32.59,32.59,0,0,0,70.49,7.36H70a32.83,32.83,0,0,0-32.15,31.9A32.49,32.49,0,0,0,48.57,64a22,22,0,0,1,7.21,16.28v5.2a3.89,3.89,0,0,0,3.9,3.88M42.58,65.59a37.72,37.72,0,0,1,1.14-52.53c.52-.51,1.05-1,1.59-1.49A77.5,77.5,0,0,0,8,39.07a77.44,77.44,0,0,0,34.6,26.52m55.82,0A77.4,77.4,0,0,0,133,39.07,77.39,77.39,0,0,0,95.78,11.61c.47.42.93.85,1.39,1.3A37.82,37.82,0,0,1,98.4,65.59m-35.31,43.3H77.88a3.28,3.28,0,0,0,3.27-3.26V94.71H59.83v10.92a3.27,3.27,0,0,0,3.26,3.26M70.49,0h-.58A85,85,0,0,0,.83,36.4a4.7,4.7,0,0,0,0,5.34A84.89,84.89,0,0,0,47.4,75a14.67,14.67,0,0,1,1,5.31v5.2a11.23,11.23,0,0,0,4.05,8.62v11.55a10.64,10.64,0,0,0,10.64,10.62H77.88a10.65,10.65,0,0,0,10.65-10.62V94.09a11.25,11.25,0,0,0,4-8.63v-5.2a14.57,14.57,0,0,1,1-5.31,84.93,84.93,0,0,0,46.55-33.21,4.7,4.7,0,0,0,0-5.34A84.87,84.87,0,0,0,70.49,0ZM59.68,87.34a1.89,1.89,0,0,1-1.9-1.88v-5.2A24,24,0,0,0,49.91,62.5,30.51,30.51,0,0,1,70.05,9.36h.44a30.51,30.51,0,0,1,20.62,53.1,24.17,24.17,0,0,0-4.74,5.91,4.64,4.64,0,0,0-.43.79,24.11,24.11,0,0,0-2.74,11.1v5.2a1.89,1.89,0,0,1-1.9,1.88ZM10.48,39.07A74.92,74.92,0,0,1,38,16.73a39.72,39.72,0,0,0-1.65,43.88A75.21,75.21,0,0,1,10.48,39.07Zm94.18,21.55a39.85,39.85,0,0,0-1.57-43.85,75,75,0,0,1,27.41,22.3,75.38,75.38,0,0,1-25.84,21.55ZM61.83,96.71H79.15v8.92a1.27,1.27,0,0,1-1.27,1.26H63.09a1.26,1.26,0,0,1-1.26-1.26V96.71Z"/><path class="cls-1" d="M70.49,57.46A18.4,18.4,0,1,1,88.94,39.07,18.44,18.44,0,0,1,70.49,57.46Zm0-42.15A23.76,23.76,0,1,0,94.31,39.07,23.82,23.82,0,0,0,70.49,15.31Z"/></g></g></svg>